<?xml version="1.0" standalone="no"?>
<!DOCTYPE svg PUBLIC "-//W3C//DTD SVG 20010904//EN"
 "http://www.w3.org/TR/2001/REC-SVG-20010904/DTD/svg10.dtd">
<svg version="1.0" xmlns="http://www.w3.org/2000/svg"
 width="512.000000pt" height="512.000000pt" viewBox="0 0 512.000000 512.000000"
 preserveAspectRatio="xMidYMid meet">
<metadata>
Created by potrace 1.16, written by Peter Selinger 2001-2019
</metadata>
<g transform="translate(0.000000,512.000000) scale(0.100000,-0.100000)"
fill="#000000" stroke="none">
<path d="M2235 5104 c-580 -78 -1073 -321 -1486 -734 -411 -410 -663 -923
-734 -1490 -20 -161 -20 -481 0 -637 73 -572 321 -1079 730 -1489 145 -145
246 -229 400 -331 341 -227 743 -372 1153 -414 147 -15 522 -6 657 16 542 87
1022 332 1410 720 396 395 629 844 726 1400 30 170 38 549 15 725 -78 592
-319 1083 -736 1500 -413 414 -917 662 -1493 735 -147 19 -502 18 -642 -1z
m615 -310 c559 -74 1072 -355 1432 -784 347 -413 528 -910 528 -1450 0 -453
-124 -867 -369 -1236 -427 -643 -1119 -1016 -1885 -1015 -606 1 -1156 230
-1586 661 -433 432 -660 980 -660 1590 0 416 103 796 310 1143 464 780 1340
1208 2230 1091z"/>
<path d="M1511 3890 c-119 -43 -208 -124 -263 -239 -41 -85 -52 -214 -23 -268
26 -48 72 -73 135 -73 90 0 141 47 155 145 9 63 31 101 75 128 32 20 51 22
203 26 l167 3 0 -813 c0 -464 -5 -846 -10 -888 -14 -103 -55 -188 -129 -262
-79 -78 -158 -116 -277 -130 -99 -12 -136 -29 -165 -75 -26 -42 -26 -129 0
-168 34 -52 68 -66 157 -66 104 0 216 28 324 82 69 34 103 60 180 138 78 77
104 111 138 180 85 171 82 127 82 1122 l0 878 300 0 300 0 2 -1037 3 -1038 34
-70 c45 -92 124 -171 216 -216 68 -33 73 -34 195 -34 122 0 127 1 195 34 92
45 171 125 215 216 43 89 54 217 25 272 -26 48 -72 73 -135 73 -91 0 -141 -47
-155 -146 -12 -90 -66 -144 -143 -144 -54 0 -96 24 -125 70 l-22 35 -3 993 -2
992 327 0 c304 0 330 1 357 19 46 31 66 69 66 131 0 62 -20 100 -66 131 -28
18 -68 19 -1154 19 -1085 -1 -1127 -1 -1179 -20z"/>
</g>
</svg>
